<?xml version="1.0" standalone="no"?><svg xmlns="http://www.w3.org/2000/svg" viewBox="0 0 1440 320"><path fill="#fe6cc1" fill-opacity="1" d="M0,64L18.5,96C36.9,128,74,192,111,229.3C147.7,267,185,277,222,240C258.5,203,295,117,332,96C369.2,75,406,117,443,122.7C480,128,517,96,554,106.7C590.8,117,628,171,665,208C701.5,245,738,267,775,234.7C812.3,203,849,117,886,101.3C923.1,85,960,139,997,154.7C1033.8,171,1071,149,1108,133.3C1144.6,117,1182,107,1218,106.7C1255.4,107,1292,117,1329,128C1366.2,139,1403,149,1422,154.7L1440,160L1440,0L1421.5,0C1403.1,0,1366,0,1329,0C1292.3,0,1255,0,1218,0C1181.5,0,1145,0,1108,0C1070.8,0,1034,0,997,0C960,0,923,0,886,0C849.2,0,812,0,775,0C738.5,0,702,0,665,0C627.7,0,591,0,554,0C516.9,0,480,0,443,0C406.2,0,369,0,332,0C295.4,0,258,0,222,0C184.6,0,148,0,111,0C73.8,0,37,0,18,0L0,0Z"></path></svg>